<svg xmlns="http://www.w3.org/2000/svg" version="1.1" xmlns:xlink="http://www.w3.org/1999/xlink" xmlns:svgjs="http://svgjs.dev/svgjs" width="390" height="900" preserveAspectRatio="none" viewBox="0 0 390 900"><g mask="url(&quot;#SvgjsMask1264&quot;)" fill="none"><rect width="390" height="900" x="0" y="0" fill="rgba(9, 9, 11, 1)"></rect><path d="M31.62 -25.03L79.25 2.47L79.25 57.47L31.62 84.97L-16.01 57.47L-16.01 2.47zM79.25 57.47L126.89 84.97L126.89 139.97L79.25 167.47L31.62 139.97L31.62 84.97zM79.25 222.47L126.89 249.97L126.89 304.97L79.25 332.47L31.62 304.97L31.62 249.97zM126.89 139.97L174.52 167.47L174.52 222.47L126.89 249.97L79.25 222.47L79.25 167.47zM174.52 222.47L222.15 249.97L222.15 304.97L174.52 332.47L126.89 304.97L126.89 249.97zM174.52 387.47L222.15 414.97L222.15 469.97L174.52 497.47L126.89 469.97L126.89 414.97zM126.89 469.97L174.52 497.47L174.52 552.47L126.89 579.97L79.25 552.47L79.25 497.47zM174.52 717.47L222.15 744.97L222.15 799.97L174.52 827.47L126.89 799.97L126.89 744.97zM269.78 57.47L317.42 84.97L317.42 139.97L269.78 167.47L222.15 139.97L222.15 84.97zM222.15 139.97L269.78 167.47L269.78 222.47L222.15 249.97L174.52 222.47L174.52 167.47zM222.15 304.97L269.78 332.47L269.78 387.47L222.15 414.97L174.52 387.47L174.52 332.47zM269.78 387.47L317.42 414.97L317.42 469.97L269.78 497.47L222.15 469.97L222.15 414.97zM222.15 469.97L269.78 497.47L269.78 552.47L222.15 579.97L174.52 552.47L174.52 497.47zM269.78 552.47L317.42 579.97L317.42 634.97L269.78 662.47L222.15 634.97L222.15 579.97zM222.15 634.97L269.78 662.47L269.78 717.47L222.15 744.97L174.52 717.47L174.52 662.47zM269.78 717.47L317.42 744.97L317.42 799.97L269.78 827.47L222.15 799.97L222.15 744.97zM317.42 -25.03L365.05 2.47L365.05 57.47L317.42 84.97L269.78 57.47L269.78 2.47zM317.42 799.97L365.05 827.47L365.05 882.47L317.42 909.97L269.78 882.47L269.78 827.47zM365.05 882.47L412.68 909.97L412.68 964.97L365.05 992.47L317.42 964.97L317.42 909.97zM460.31 57.47L507.95 84.97L507.95 139.97L460.31 167.47L412.68 139.97L412.68 84.97zM460.31 387.47L507.95 414.97L507.95 469.97L460.31 497.47L412.68 469.97L412.68 414.97zM460.31 717.47L507.95 744.97L507.95 799.97L460.31 827.47L412.68 799.97L412.68 744.97z" stroke="rgba(110, 231, 183, 0.15)" stroke-width="2"></path><path d="M26.12 -25.03 a5.5 5.5 0 1 0 11 0 a5.5 5.5 0 1 0 -11 0zM73.75 2.47 a5.5 5.5 0 1 0 11 0 a5.5 5.5 0 1 0 -11 0zM73.75 57.47 a5.5 5.5 0 1 0 11 0 a5.5 5.5 0 1 0 -11 0zM26.12 84.97 a5.5 5.5 0 1 0 11 0 a5.5 5.5 0 1 0 -11 0zM-21.51 57.47 a5.5 5.5 0 1 0 11 0 a5.5 5.5 0 1 0 -11 0zM-21.51 2.47 a5.5 5.5 0 1 0 11 0 a5.5 5.5 0 1 0 -11 0zM121.39 84.97 a5.5 5.5 0 1 0 11 0 a5.5 5.5 0 1 0 -11 0zM121.39 139.97 a5.5 5.5 0 1 0 11 0 a5.5 5.5 0 1 0 -11 0zM73.75 167.47 a5.5 5.5 0 1 0 11 0 a5.5 5.5 0 1 0 -11 0zM26.12 139.97 a5.5 5.5 0 1 0 11 0 a5.5 5.5 0 1 0 -11 0zM73.75 222.47 a5.5 5.5 0 1 0 11 0 a5.5 5.5 0 1 0 -11 0zM121.39 249.97 a5.5 5.5 0 1 0 11 0 a5.5 5.5 0 1 0 -11 0zM121.39 304.97 a5.5 5.5 0 1 0 11 0 a5.5 5.5 0 1 0 -11 0zM73.75 332.47 a5.5 5.5 0 1 0 11 0 a5.5 5.5 0 1 0 -11 0zM26.12 304.97 a5.5 5.5 0 1 0 11 0 a5.5 5.5 0 1 0 -11 0zM26.12 249.97 a5.5 5.5 0 1 0 11 0 a5.5 5.5 0 1 0 -11 0zM169.02 167.47 a5.5 5.5 0 1 0 11 0 a5.5 5.5 0 1 0 -11 0zM169.02 222.47 a5.5 5.5 0 1 0 11 0 a5.5 5.5 0 1 0 -11 0zM216.65 249.97 a5.5 5.5 0 1 0 11 0 a5.5 5.5 0 1 0 -11 0zM216.65 304.97 a5.5 5.5 0 1 0 11 0 a5.5 5.5 0 1 0 -11 0zM169.02 332.47 a5.5 5.5 0 1 0 11 0 a5.5 5.5 0 1 0 -11 0zM169.02 387.47 a5.5 5.5 0 1 0 11 0 a5.5 5.5 0 1 0 -11 0zM216.65 414.97 a5.5 5.5 0 1 0 11 0 a5.5 5.5 0 1 0 -11 0zM216.65 469.97 a5.5 5.5 0 1 0 11 0 a5.5 5.5 0 1 0 -11 0zM169.02 497.47 a5.5 5.5 0 1 0 11 0 a5.5 5.5 0 1 0 -11 0zM121.39 469.97 a5.5 5.5 0 1 0 11 0 a5.5 5.5 0 1 0 -11 0zM121.39 414.97 a5.5 5.5 0 1 0 11 0 a5.5 5.5 0 1 0 -11 0zM169.02 552.47 a5.5 5.5 0 1 0 11 0 a5.5 5.5 0 1 0 -11 0zM121.39 579.97 a5.5 5.5 0 1 0 11 0 a5.5 5.5 0 1 0 -11 0zM73.75 552.47 a5.5 5.5 0 1 0 11 0 a5.5 5.5 0 1 0 -11 0zM73.75 497.47 a5.5 5.5 0 1 0 11 0 a5.5 5.5 0 1 0 -11 0zM169.02 717.47 a5.5 5.5 0 1 0 11 0 a5.5 5.5 0 1 0 -11 0zM216.65 744.97 a5.5 5.5 0 1 0 11 0 a5.5 5.5 0 1 0 -11 0zM216.65 799.97 a5.5 5.5 0 1 0 11 0 a5.5 5.5 0 1 0 -11 0zM169.02 827.47 a5.5 5.5 0 1 0 11 0 a5.5 5.5 0 1 0 -11 0zM121.39 799.97 a5.5 5.5 0 1 0 11 0 a5.5 5.5 0 1 0 -11 0zM121.39 744.97 a5.5 5.5 0 1 0 11 0 a5.5 5.5 0 1 0 -11 0zM264.28 57.47 a5.5 5.5 0 1 0 11 0 a5.5 5.5 0 1 0 -11 0zM311.92 84.97 a5.5 5.5 0 1 0 11 0 a5.5 5.5 0 1 0 -11 0zM311.92 139.97 a5.5 5.5 0 1 0 11 0 a5.5 5.5 0 1 0 -11 0zM264.28 167.47 a5.5 5.5 0 1 0 11 0 a5.5 5.5 0 1 0 -11 0zM216.65 139.97 a5.5 5.5 0 1 0 11 0 a5.5 5.5 0 1 0 -11 0zM216.65 84.97 a5.5 5.5 0 1 0 11 0 a5.5 5.5 0 1 0 -11 0zM264.28 222.47 a5.5 5.5 0 1 0 11 0 a5.5 5.5 0 1 0 -11 0zM264.28 332.47 a5.5 5.5 0 1 0 11 0 a5.5 5.5 0 1 0 -11 0zM264.28 387.47 a5.5 5.5 0 1 0 11 0 a5.5 5.5 0 1 0 -11 0zM311.92 414.97 a5.5 5.5 0 1 0 11 0 a5.5 5.5 0 1 0 -11 0zM311.92 469.97 a5.5 5.5 0 1 0 11 0 a5.5 5.5 0 1 0 -11 0zM264.28 497.47 a5.5 5.5 0 1 0 11 0 a5.5 5.5 0 1 0 -11 0zM264.28 552.47 a5.5 5.5 0 1 0 11 0 a5.5 5.5 0 1 0 -11 0zM216.65 579.97 a5.5 5.5 0 1 0 11 0 a5.5 5.5 0 1 0 -11 0zM311.92 579.97 a5.5 5.5 0 1 0 11 0 a5.5 5.5 0 1 0 -11 0zM311.92 634.97 a5.5 5.5 0 1 0 11 0 a5.5 5.5 0 1 0 -11 0zM264.28 662.47 a5.5 5.5 0 1 0 11 0 a5.5 5.5 0 1 0 -11 0zM216.65 634.97 a5.5 5.5 0 1 0 11 0 a5.5 5.5 0 1 0 -11 0zM264.28 717.47 a5.5 5.5 0 1 0 11 0 a5.5 5.5 0 1 0 -11 0zM169.02 662.47 a5.5 5.5 0 1 0 11 0 a5.5 5.5 0 1 0 -11 0zM311.92 744.97 a5.5 5.5 0 1 0 11 0 a5.5 5.5 0 1 0 -11 0zM311.92 799.97 a5.5 5.5 0 1 0 11 0 a5.5 5.5 0 1 0 -11 0zM264.28 827.47 a5.5 5.5 0 1 0 11 0 a5.5 5.5 0 1 0 -11 0zM311.92 -25.03 a5.5 5.5 0 1 0 11 0 a5.5 5.5 0 1 0 -11 0zM359.55 2.47 a5.5 5.5 0 1 0 11 0 a5.5 5.5 0 1 0 -11 0zM359.55 57.47 a5.5 5.5 0 1 0 11 0 a5.5 5.5 0 1 0 -11 0zM264.28 2.47 a5.5 5.5 0 1 0 11 0 a5.5 5.5 0 1 0 -11 0zM359.55 827.47 a5.5 5.5 0 1 0 11 0 a5.5 5.5 0 1 0 -11 0zM359.55 882.47 a5.5 5.5 0 1 0 11 0 a5.5 5.5 0 1 0 -11 0zM311.92 909.97 a5.5 5.5 0 1 0 11 0 a5.5 5.5 0 1 0 -11 0zM264.28 882.47 a5.5 5.5 0 1 0 11 0 a5.5 5.5 0 1 0 -11 0zM407.18 909.97 a5.5 5.5 0 1 0 11 0 a5.5 5.5 0 1 0 -11 0zM407.18 964.97 a5.5 5.5 0 1 0 11 0 a5.5 5.5 0 1 0 -11 0zM359.55 992.47 a5.5 5.5 0 1 0 11 0 a5.5 5.5 0 1 0 -11 0zM311.92 964.97 a5.5 5.5 0 1 0 11 0 a5.5 5.5 0 1 0 -11 0zM454.81 57.47 a5.5 5.5 0 1 0 11 0 a5.5 5.5 0 1 0 -11 0zM502.45 84.97 a5.5 5.5 0 1 0 11 0 a5.5 5.5 0 1 0 -11 0zM502.45 139.97 a5.5 5.5 0 1 0 11 0 a5.5 5.5 0 1 0 -11 0zM454.81 167.47 a5.5 5.5 0 1 0 11 0 a5.5 5.5 0 1 0 -11 0zM407.18 139.97 a5.5 5.5 0 1 0 11 0 a5.5 5.5 0 1 0 -11 0zM407.18 84.97 a5.5 5.5 0 1 0 11 0 a5.5 5.5 0 1 0 -11 0zM454.81 387.47 a5.5 5.5 0 1 0 11 0 a5.5 5.5 0 1 0 -11 0zM502.45 414.97 a5.5 5.5 0 1 0 11 0 a5.5 5.5 0 1 0 -11 0zM502.45 469.97 a5.5 5.5 0 1 0 11 0 a5.5 5.5 0 1 0 -11 0zM454.81 497.47 a5.5 5.5 0 1 0 11 0 a5.5 5.5 0 1 0 -11 0zM407.18 469.97 a5.5 5.5 0 1 0 11 0 a5.5 5.5 0 1 0 -11 0zM407.18 414.97 a5.5 5.5 0 1 0 11 0 a5.5 5.5 0 1 0 -11 0zM454.81 717.47 a5.5 5.5 0 1 0 11 0 a5.5 5.5 0 1 0 -11 0zM502.45 744.97 a5.5 5.5 0 1 0 11 0 a5.5 5.5 0 1 0 -11 0zM502.45 799.97 a5.5 5.5 0 1 0 11 0 a5.5 5.5 0 1 0 -11 0zM454.81 827.47 a5.5 5.5 0 1 0 11 0 a5.5 5.5 0 1 0 -11 0zM407.18 799.97 a5.5 5.5 0 1 0 11 0 a5.5 5.5 0 1 0 -11 0zM407.18 744.97 a5.5 5.5 0 1 0 11 0 a5.5 5.5 0 1 0 -11 0z" fill="rgba(110, 231, 183, 0.15)"></path><path d="M3.97 -47.2L51.6 -19.7L51.6 35.3L3.97 62.8L-43.66 35.3L-43.66 -19.7zM51.6 365.3L99.24 392.8L99.24 447.8L51.6 475.3L3.97 447.8L3.97 392.8zM3.97 612.8L51.6 640.3L51.6 695.3L3.97 722.8L-43.66 695.3L-43.66 640.3zM51.6 695.3L99.24 722.8L99.24 777.8L51.6 805.3L3.97 777.8L3.97 722.8zM99.24 612.8L146.87 640.3L146.87 695.3L99.24 722.8L51.6 695.3L51.6 640.3zM99.24 777.8L146.87 805.3L146.87 860.3L99.24 887.8L51.6 860.3L51.6 805.3zM146.87 860.3L194.5 887.8L194.5 942.8L146.87 970.3L99.24 942.8L99.24 887.8zM194.5 -47.2L242.13 -19.7L242.13 35.3L194.5 62.8L146.87 35.3L146.87 -19.7zM242.13 200.3L289.77 227.8L289.77 282.8L242.13 310.3L194.5 282.8L194.5 227.8zM242.13 365.3L289.77 392.8L289.77 447.8L242.13 475.3L194.5 447.8L194.5 392.8zM194.5 612.8L242.13 640.3L242.13 695.3L194.5 722.8L146.87 695.3L146.87 640.3zM242.13 695.3L289.77 722.8L289.77 777.8L242.13 805.3L194.5 777.8L194.5 722.8zM242.13 860.3L289.77 887.8L289.77 942.8L242.13 970.3L194.5 942.8L194.5 887.8zM337.4 35.3L385.03 62.8L385.03 117.8L337.4 145.3L289.77 117.8L289.77 62.8zM289.77 282.8L337.4 310.3L337.4 365.3L289.77 392.8L242.13 365.3L242.13 310.3zM385.03 -47.2L432.66 -19.7L432.66 35.3L385.03 62.8L337.4 35.3L337.4 -19.7zM432.66 35.3L480.3 62.8L480.3 117.8L432.66 145.3L385.03 117.8L385.03 62.8zM432.66 200.3L480.3 227.8L480.3 282.8L432.66 310.3L385.03 282.8L385.03 227.8zM432.66 365.3L480.3 392.8L480.3 447.8L432.66 475.3L385.03 447.8L385.03 392.8zM385.03 447.8L432.66 475.3L432.66 530.3L385.03 557.8L337.4 530.3L337.4 475.3zM432.66 530.3L480.3 557.8L480.3 612.8L432.66 640.3L385.03 612.8L385.03 557.8z" stroke="rgba(0, 188, 125, 0.71)" stroke-width="2"></path></g><defs><mask id="SvgjsMask1264"><rect width="390" height="900" fill="#ffffff"></rect></mask></defs></svg>