<svg xmlns="http://www.w3.org/2000/svg" version="1.1" xmlns:xlink="http://www.w3.org/1999/xlink" xmlns:svgjs="http://svgjs.dev/svgjs" width="2600" height="1400" preserveAspectRatio="none" viewBox="0 0 2600 1400"><g mask="url(&quot;#SvgjsMask1031&quot;)" fill="none"><rect width="2600" height="1400" x="0" y="0" fill="rgba(9, 9, 11, 1)"></rect><path d="M99.81 1085.99L160.44 1120.99L160.44 1190.99L99.81 1225.99L39.19 1190.99L39.19 1120.99zM221.06 35.99L281.68 70.99L281.68 140.99L221.06 175.99L160.44 140.99L160.44 70.99zM160.44 140.99L221.06 175.99L221.06 245.99L160.44 280.99L99.81 245.99L99.81 175.99zM221.06 455.99L281.68 490.99L281.68 560.99L221.06 595.99L160.44 560.99L160.44 490.99zM160.44 560.99L221.06 595.99L221.06 665.99L160.44 700.99L99.81 665.99L99.81 595.99zM160.44 770.99L221.06 805.99L221.06 875.99L160.44 910.99L99.81 875.99L99.81 805.99zM221.06 875.99L281.68 910.99L281.68 980.99L221.06 1015.99L160.44 980.99L160.44 910.99zM342.31 1295.99L402.93 1330.99L402.93 1400.99L342.31 1435.99L281.68 1400.99L281.68 1330.99zM463.55 875.99L524.18 910.99L524.18 980.99L463.55 1015.99L402.93 980.99L402.93 910.99zM524.18 560.99L584.8 595.99L584.8 665.99L524.18 700.99L463.55 665.99L463.55 595.99zM584.8 665.99L645.42 700.99L645.42 770.99L584.8 805.99L524.18 770.99L524.18 700.99zM524.18 770.99L584.8 805.99L584.8 875.99L524.18 910.99L463.55 875.99L463.55 805.99zM524.18 980.99L584.8 1015.99L584.8 1085.99L524.18 1120.99L463.55 1085.99L463.55 1015.99zM645.42 -69.01L706.05 -34.01L706.05 35.99L645.42 70.99L584.8 35.99L584.8 -34.01zM706.05 35.99L766.67 70.99L766.67 140.99L706.05 175.99L645.42 140.99L645.42 70.99zM645.42 770.99L706.05 805.99L706.05 875.99L645.42 910.99L584.8 875.99L584.8 805.99zM645.42 980.99L706.05 1015.99L706.05 1085.99L645.42 1120.99L584.8 1085.99L584.8 1015.99zM766.67 -69.01L827.3 -34.01L827.3 35.99L766.67 70.99L706.05 35.99L706.05 -34.01zM766.67 980.99L827.3 1015.99L827.3 1085.99L766.67 1120.99L706.05 1085.99L706.05 1015.99zM887.92 -69.01L948.54 -34.01L948.54 35.99L887.92 70.99L827.3 35.99L827.3 -34.01zM887.92 140.99L948.54 175.99L948.54 245.99L887.92 280.99L827.3 245.99L827.3 175.99zM887.92 560.99L948.54 595.99L948.54 665.99L887.92 700.99L827.3 665.99L827.3 595.99zM948.54 875.99L1009.17 910.99L1009.17 980.99L948.54 1015.99L887.92 980.99L887.92 910.99zM1009.17 -69.01L1069.79 -34.01L1069.79 35.99L1009.17 70.99L948.54 35.99L948.54 -34.01zM1009.17 350.99L1069.79 385.99L1069.79 455.99L1009.17 490.99L948.54 455.99L948.54 385.99zM1191.04 35.99L1251.66 70.99L1251.66 140.99L1191.04 175.99L1130.41 140.99L1130.41 70.99zM1191.04 245.99L1251.66 280.99L1251.66 350.99L1191.04 385.99L1130.41 350.99L1130.41 280.99zM1130.41 560.99L1191.04 595.99L1191.04 665.99L1130.41 700.99L1069.79 665.99L1069.79 595.99zM1251.66 -69.01L1312.28 -34.01L1312.28 35.99L1251.66 70.99L1191.04 35.99L1191.04 -34.01zM1312.28 245.99L1372.91 280.99L1372.91 350.99L1312.28 385.99L1251.66 350.99L1251.66 280.99zM1433.53 35.99L1494.15 70.99L1494.15 140.99L1433.53 175.99L1372.91 140.99L1372.91 70.99zM1615.4 140.99L1676.02 175.99L1676.02 245.99L1615.4 280.99L1554.78 245.99L1554.78 175.99zM1676.02 455.99L1736.65 490.99L1736.65 560.99L1676.02 595.99L1615.4 560.99L1615.4 490.99zM1676.02 875.99L1736.65 910.99L1736.65 980.99L1676.02 1015.99L1615.4 980.99L1615.4 910.99zM1676.02 1085.99L1736.65 1120.99L1736.65 1190.99L1676.02 1225.99L1615.4 1190.99L1615.4 1120.99zM1736.65 -69.01L1797.27 -34.01L1797.27 35.99L1736.65 70.99L1676.02 35.99L1676.02 -34.01zM1797.27 245.99L1857.89 280.99L1857.89 350.99L1797.27 385.99L1736.65 350.99L1736.65 280.99zM1736.65 350.99L1797.27 385.99L1797.27 455.99L1736.65 490.99L1676.02 455.99L1676.02 385.99zM1857.89 -69.01L1918.52 -34.01L1918.52 35.99L1857.89 70.99L1797.27 35.99L1797.27 -34.01zM1918.52 1295.99L1979.14 1330.99L1979.14 1400.99L1918.52 1435.99L1857.89 1400.99L1857.89 1330.99zM2039.77 245.99L2100.39 280.99L2100.39 350.99L2039.77 385.99L1979.14 350.99L1979.14 280.99zM2039.77 665.99L2100.39 700.99L2100.39 770.99L2039.77 805.99L1979.14 770.99L1979.14 700.99zM2100.39 -69.01L2161.01 -34.01L2161.01 35.99L2100.39 70.99L2039.77 35.99L2039.77 -34.01zM2100.39 560.99L2161.01 595.99L2161.01 665.99L2100.39 700.99L2039.77 665.99L2039.77 595.99zM2161.01 665.99L2221.64 700.99L2221.64 770.99L2161.01 805.99L2100.39 770.99L2100.39 700.99zM2161.01 1085.99L2221.64 1120.99L2221.64 1190.99L2161.01 1225.99L2100.39 1190.99L2100.39 1120.99zM2282.26 35.99L2342.88 70.99L2342.88 140.99L2282.26 175.99L2221.64 140.99L2221.64 70.99zM2221.64 140.99L2282.26 175.99L2282.26 245.99L2221.64 280.99L2161.01 245.99L2161.01 175.99zM2342.88 1190.99L2403.51 1225.99L2403.51 1295.99L2342.88 1330.99L2282.26 1295.99L2282.26 1225.99zM2403.51 1295.99L2464.13 1330.99L2464.13 1400.99L2403.51 1435.99L2342.88 1400.99L2342.88 1330.99zM2464.13 560.99L2524.75 595.99L2524.75 665.99L2464.13 700.99L2403.51 665.99L2403.51 595.99zM2524.75 1295.99L2585.38 1330.99L2585.38 1400.99L2524.75 1435.99L2464.13 1400.99L2464.13 1330.99zM2646 35.99L2706.62 70.99L2706.62 140.99L2646 175.99L2585.38 140.99L2585.38 70.99zM2646 1085.99L2706.62 1120.99L2706.62 1190.99L2646 1225.99L2585.38 1190.99L2585.38 1120.99z" stroke="rgba(110, 231, 183, 0.15)" stroke-width="2"></path><path d="M92.81 1085.99 a7 7 0 1 0 14 0 a7 7 0 1 0 -14 0zM153.44 1120.99 a7 7 0 1 0 14 0 a7 7 0 1 0 -14 0zM153.44 1190.99 a7 7 0 1 0 14 0 a7 7 0 1 0 -14 0zM92.81 1225.99 a7 7 0 1 0 14 0 a7 7 0 1 0 -14 0zM32.19 1190.99 a7 7 0 1 0 14 0 a7 7 0 1 0 -14 0zM32.19 1120.99 a7 7 0 1 0 14 0 a7 7 0 1 0 -14 0zM214.06 35.99 a7 7 0 1 0 14 0 a7 7 0 1 0 -14 0zM274.68 70.99 a7 7 0 1 0 14 0 a7 7 0 1 0 -14 0zM274.68 140.99 a7 7 0 1 0 14 0 a7 7 0 1 0 -14 0zM214.06 175.99 a7 7 0 1 0 14 0 a7 7 0 1 0 -14 0zM153.44 140.99 a7 7 0 1 0 14 0 a7 7 0 1 0 -14 0zM153.44 70.99 a7 7 0 1 0 14 0 a7 7 0 1 0 -14 0zM214.06 245.99 a7 7 0 1 0 14 0 a7 7 0 1 0 -14 0zM153.44 280.99 a7 7 0 1 0 14 0 a7 7 0 1 0 -14 0zM92.81 245.99 a7 7 0 1 0 14 0 a7 7 0 1 0 -14 0zM92.81 175.99 a7 7 0 1 0 14 0 a7 7 0 1 0 -14 0zM214.06 455.99 a7 7 0 1 0 14 0 a7 7 0 1 0 -14 0zM274.68 490.99 a7 7 0 1 0 14 0 a7 7 0 1 0 -14 0zM274.68 560.99 a7 7 0 1 0 14 0 a7 7 0 1 0 -14 0zM214.06 595.99 a7 7 0 1 0 14 0 a7 7 0 1 0 -14 0zM153.44 560.99 a7 7 0 1 0 14 0 a7 7 0 1 0 -14 0zM153.44 490.99 a7 7 0 1 0 14 0 a7 7 0 1 0 -14 0zM214.06 665.99 a7 7 0 1 0 14 0 a7 7 0 1 0 -14 0zM153.44 700.99 a7 7 0 1 0 14 0 a7 7 0 1 0 -14 0zM92.81 665.99 a7 7 0 1 0 14 0 a7 7 0 1 0 -14 0zM92.81 595.99 a7 7 0 1 0 14 0 a7 7 0 1 0 -14 0zM153.44 770.99 a7 7 0 1 0 14 0 a7 7 0 1 0 -14 0zM214.06 805.99 a7 7 0 1 0 14 0 a7 7 0 1 0 -14 0zM214.06 875.99 a7 7 0 1 0 14 0 a7 7 0 1 0 -14 0zM153.44 910.99 a7 7 0 1 0 14 0 a7 7 0 1 0 -14 0zM92.81 875.99 a7 7 0 1 0 14 0 a7 7 0 1 0 -14 0zM92.81 805.99 a7 7 0 1 0 14 0 a7 7 0 1 0 -14 0zM274.68 910.99 a7 7 0 1 0 14 0 a7 7 0 1 0 -14 0zM274.68 980.99 a7 7 0 1 0 14 0 a7 7 0 1 0 -14 0zM214.06 1015.99 a7 7 0 1 0 14 0 a7 7 0 1 0 -14 0zM153.44 980.99 a7 7 0 1 0 14 0 a7 7 0 1 0 -14 0zM335.31 1295.99 a7 7 0 1 0 14 0 a7 7 0 1 0 -14 0zM395.93 1330.99 a7 7 0 1 0 14 0 a7 7 0 1 0 -14 0zM395.93 1400.99 a7 7 0 1 0 14 0 a7 7 0 1 0 -14 0zM335.31 1435.99 a7 7 0 1 0 14 0 a7 7 0 1 0 -14 0zM274.68 1400.99 a7 7 0 1 0 14 0 a7 7 0 1 0 -14 0zM274.68 1330.99 a7 7 0 1 0 14 0 a7 7 0 1 0 -14 0zM456.55 875.99 a7 7 0 1 0 14 0 a7 7 0 1 0 -14 0zM517.18 910.99 a7 7 0 1 0 14 0 a7 7 0 1 0 -14 0zM517.18 980.99 a7 7 0 1 0 14 0 a7 7 0 1 0 -14 0zM456.55 1015.99 a7 7 0 1 0 14 0 a7 7 0 1 0 -14 0zM395.93 980.99 a7 7 0 1 0 14 0 a7 7 0 1 0 -14 0zM395.93 910.99 a7 7 0 1 0 14 0 a7 7 0 1 0 -14 0zM517.18 560.99 a7 7 0 1 0 14 0 a7 7 0 1 0 -14 0zM577.8 595.99 a7 7 0 1 0 14 0 a7 7 0 1 0 -14 0zM577.8 665.99 a7 7 0 1 0 14 0 a7 7 0 1 0 -14 0zM517.18 700.99 a7 7 0 1 0 14 0 a7 7 0 1 0 -14 0zM456.55 665.99 a7 7 0 1 0 14 0 a7 7 0 1 0 -14 0zM456.55 595.99 a7 7 0 1 0 14 0 a7 7 0 1 0 -14 0zM638.42 700.99 a7 7 0 1 0 14 0 a7 7 0 1 0 -14 0zM638.42 770.99 a7 7 0 1 0 14 0 a7 7 0 1 0 -14 0zM577.8 805.99 a7 7 0 1 0 14 0 a7 7 0 1 0 -14 0zM517.18 770.99 a7 7 0 1 0 14 0 a7 7 0 1 0 -14 0zM577.8 875.99 a7 7 0 1 0 14 0 a7 7 0 1 0 -14 0zM456.55 805.99 a7 7 0 1 0 14 0 a7 7 0 1 0 -14 0zM577.8 1015.99 a7 7 0 1 0 14 0 a7 7 0 1 0 -14 0zM577.8 1085.99 a7 7 0 1 0 14 0 a7 7 0 1 0 -14 0zM517.18 1120.99 a7 7 0 1 0 14 0 a7 7 0 1 0 -14 0zM456.55 1085.99 a7 7 0 1 0 14 0 a7 7 0 1 0 -14 0zM638.42 -69.01 a7 7 0 1 0 14 0 a7 7 0 1 0 -14 0zM699.05 -34.01 a7 7 0 1 0 14 0 a7 7 0 1 0 -14 0zM699.05 35.99 a7 7 0 1 0 14 0 a7 7 0 1 0 -14 0zM638.42 70.99 a7 7 0 1 0 14 0 a7 7 0 1 0 -14 0zM577.8 35.99 a7 7 0 1 0 14 0 a7 7 0 1 0 -14 0zM577.8 -34.01 a7 7 0 1 0 14 0 a7 7 0 1 0 -14 0zM759.67 70.99 a7 7 0 1 0 14 0 a7 7 0 1 0 -14 0zM759.67 140.99 a7 7 0 1 0 14 0 a7 7 0 1 0 -14 0zM699.05 175.99 a7 7 0 1 0 14 0 a7 7 0 1 0 -14 0zM638.42 140.99 a7 7 0 1 0 14 0 a7 7 0 1 0 -14 0zM699.05 805.99 a7 7 0 1 0 14 0 a7 7 0 1 0 -14 0zM699.05 875.99 a7 7 0 1 0 14 0 a7 7 0 1 0 -14 0zM638.42 910.99 a7 7 0 1 0 14 0 a7 7 0 1 0 -14 0zM638.42 980.99 a7 7 0 1 0 14 0 a7 7 0 1 0 -14 0zM699.05 1015.99 a7 7 0 1 0 14 0 a7 7 0 1 0 -14 0zM699.05 1085.99 a7 7 0 1 0 14 0 a7 7 0 1 0 -14 0zM638.42 1120.99 a7 7 0 1 0 14 0 a7 7 0 1 0 -14 0zM759.67 -69.01 a7 7 0 1 0 14 0 a7 7 0 1 0 -14 0zM820.3 -34.01 a7 7 0 1 0 14 0 a7 7 0 1 0 -14 0zM820.3 35.99 a7 7 0 1 0 14 0 a7 7 0 1 0 -14 0zM759.67 980.99 a7 7 0 1 0 14 0 a7 7 0 1 0 -14 0zM820.3 1015.99 a7 7 0 1 0 14 0 a7 7 0 1 0 -14 0zM820.3 1085.99 a7 7 0 1 0 14 0 a7 7 0 1 0 -14 0zM759.67 1120.99 a7 7 0 1 0 14 0 a7 7 0 1 0 -14 0zM880.92 -69.01 a7 7 0 1 0 14 0 a7 7 0 1 0 -14 0zM941.54 -34.01 a7 7 0 1 0 14 0 a7 7 0 1 0 -14 0zM941.54 35.99 a7 7 0 1 0 14 0 a7 7 0 1 0 -14 0zM880.92 70.99 a7 7 0 1 0 14 0 a7 7 0 1 0 -14 0zM880.92 140.99 a7 7 0 1 0 14 0 a7 7 0 1 0 -14 0zM941.54 175.99 a7 7 0 1 0 14 0 a7 7 0 1 0 -14 0zM941.54 245.99 a7 7 0 1 0 14 0 a7 7 0 1 0 -14 0zM880.92 280.99 a7 7 0 1 0 14 0 a7 7 0 1 0 -14 0zM820.3 245.99 a7 7 0 1 0 14 0 a7 7 0 1 0 -14 0zM820.3 175.99 a7 7 0 1 0 14 0 a7 7 0 1 0 -14 0zM880.92 560.99 a7 7 0 1 0 14 0 a7 7 0 1 0 -14 0zM941.54 595.99 a7 7 0 1 0 14 0 a7 7 0 1 0 -14 0zM941.54 665.99 a7 7 0 1 0 14 0 a7 7 0 1 0 -14 0zM880.92 700.99 a7 7 0 1 0 14 0 a7 7 0 1 0 -14 0zM820.3 665.99 a7 7 0 1 0 14 0 a7 7 0 1 0 -14 0zM820.3 595.99 a7 7 0 1 0 14 0 a7 7 0 1 0 -14 0zM941.54 875.99 a7 7 0 1 0 14 0 a7 7 0 1 0 -14 0zM1002.17 910.99 a7 7 0 1 0 14 0 a7 7 0 1 0 -14 0zM1002.17 980.99 a7 7 0 1 0 14 0 a7 7 0 1 0 -14 0zM941.54 1015.99 a7 7 0 1 0 14 0 a7 7 0 1 0 -14 0zM880.92 980.99 a7 7 0 1 0 14 0 a7 7 0 1 0 -14 0zM880.92 910.99 a7 7 0 1 0 14 0 a7 7 0 1 0 -14 0zM1002.17 -69.01 a7 7 0 1 0 14 0 a7 7 0 1 0 -14 0zM1062.79 -34.01 a7 7 0 1 0 14 0 a7 7 0 1 0 -14 0zM1062.79 35.99 a7 7 0 1 0 14 0 a7 7 0 1 0 -14 0zM1002.17 70.99 a7 7 0 1 0 14 0 a7 7 0 1 0 -14 0zM1002.17 350.99 a7 7 0 1 0 14 0 a7 7 0 1 0 -14 0zM1062.79 385.99 a7 7 0 1 0 14 0 a7 7 0 1 0 -14 0zM1062.79 455.99 a7 7 0 1 0 14 0 a7 7 0 1 0 -14 0zM1002.17 490.99 a7 7 0 1 0 14 0 a7 7 0 1 0 -14 0zM941.54 455.99 a7 7 0 1 0 14 0 a7 7 0 1 0 -14 0zM941.54 385.99 a7 7 0 1 0 14 0 a7 7 0 1 0 -14 0zM1184.04 35.99 a7 7 0 1 0 14 0 a7 7 0 1 0 -14 0zM1244.66 70.99 a7 7 0 1 0 14 0 a7 7 0 1 0 -14 0zM1244.66 140.99 a7 7 0 1 0 14 0 a7 7 0 1 0 -14 0zM1184.04 175.99 a7 7 0 1 0 14 0 a7 7 0 1 0 -14 0zM1123.41 140.99 a7 7 0 1 0 14 0 a7 7 0 1 0 -14 0zM1123.41 70.99 a7 7 0 1 0 14 0 a7 7 0 1 0 -14 0zM1184.04 245.99 a7 7 0 1 0 14 0 a7 7 0 1 0 -14 0zM1244.66 280.99 a7 7 0 1 0 14 0 a7 7 0 1 0 -14 0zM1244.66 350.99 a7 7 0 1 0 14 0 a7 7 0 1 0 -14 0zM1184.04 385.99 a7 7 0 1 0 14 0 a7 7 0 1 0 -14 0zM1123.41 350.99 a7 7 0 1 0 14 0 a7 7 0 1 0 -14 0zM1123.41 280.99 a7 7 0 1 0 14 0 a7 7 0 1 0 -14 0zM1123.41 560.99 a7 7 0 1 0 14 0 a7 7 0 1 0 -14 0zM1184.04 595.99 a7 7 0 1 0 14 0 a7 7 0 1 0 -14 0zM1184.04 665.99 a7 7 0 1 0 14 0 a7 7 0 1 0 -14 0zM1123.41 700.99 a7 7 0 1 0 14 0 a7 7 0 1 0 -14 0zM1062.79 665.99 a7 7 0 1 0 14 0 a7 7 0 1 0 -14 0zM1062.79 595.99 a7 7 0 1 0 14 0 a7 7 0 1 0 -14 0zM1244.66 -69.01 a7 7 0 1 0 14 0 a7 7 0 1 0 -14 0zM1305.28 -34.01 a7 7 0 1 0 14 0 a7 7 0 1 0 -14 0zM1305.28 35.99 a7 7 0 1 0 14 0 a7 7 0 1 0 -14 0zM1184.04 -34.01 a7 7 0 1 0 14 0 a7 7 0 1 0 -14 0zM1305.28 245.99 a7 7 0 1 0 14 0 a7 7 0 1 0 -14 0zM1365.91 280.99 a7 7 0 1 0 14 0 a7 7 0 1 0 -14 0zM1365.91 350.99 a7 7 0 1 0 14 0 a7 7 0 1 0 -14 0zM1305.28 385.99 a7 7 0 1 0 14 0 a7 7 0 1 0 -14 0zM1426.53 35.99 a7 7 0 1 0 14 0 a7 7 0 1 0 -14 0zM1487.15 70.99 a7 7 0 1 0 14 0 a7 7 0 1 0 -14 0zM1487.15 140.99 a7 7 0 1 0 14 0 a7 7 0 1 0 -14 0zM1426.53 175.99 a7 7 0 1 0 14 0 a7 7 0 1 0 -14 0zM1365.91 140.99 a7 7 0 1 0 14 0 a7 7 0 1 0 -14 0zM1365.91 70.99 a7 7 0 1 0 14 0 a7 7 0 1 0 -14 0zM1608.4 140.99 a7 7 0 1 0 14 0 a7 7 0 1 0 -14 0zM1669.02 175.99 a7 7 0 1 0 14 0 a7 7 0 1 0 -14 0zM1669.02 245.99 a7 7 0 1 0 14 0 a7 7 0 1 0 -14 0zM1608.4 280.99 a7 7 0 1 0 14 0 a7 7 0 1 0 -14 0zM1547.78 245.99 a7 7 0 1 0 14 0 a7 7 0 1 0 -14 0zM1547.78 175.99 a7 7 0 1 0 14 0 a7 7 0 1 0 -14 0zM1669.02 455.99 a7 7 0 1 0 14 0 a7 7 0 1 0 -14 0zM1729.65 490.99 a7 7 0 1 0 14 0 a7 7 0 1 0 -14 0zM1729.65 560.99 a7 7 0 1 0 14 0 a7 7 0 1 0 -14 0zM1669.02 595.99 a7 7 0 1 0 14 0 a7 7 0 1 0 -14 0zM1608.4 560.99 a7 7 0 1 0 14 0 a7 7 0 1 0 -14 0zM1608.4 490.99 a7 7 0 1 0 14 0 a7 7 0 1 0 -14 0zM1669.02 875.99 a7 7 0 1 0 14 0 a7 7 0 1 0 -14 0zM1729.65 910.99 a7 7 0 1 0 14 0 a7 7 0 1 0 -14 0zM1729.65 980.99 a7 7 0 1 0 14 0 a7 7 0 1 0 -14 0zM1669.02 1015.99 a7 7 0 1 0 14 0 a7 7 0 1 0 -14 0zM1608.4 980.99 a7 7 0 1 0 14 0 a7 7 0 1 0 -14 0zM1608.4 910.99 a7 7 0 1 0 14 0 a7 7 0 1 0 -14 0zM1669.02 1085.99 a7 7 0 1 0 14 0 a7 7 0 1 0 -14 0zM1729.65 1120.99 a7 7 0 1 0 14 0 a7 7 0 1 0 -14 0zM1729.65 1190.99 a7 7 0 1 0 14 0 a7 7 0 1 0 -14 0zM1669.02 1225.99 a7 7 0 1 0 14 0 a7 7 0 1 0 -14 0zM1608.4 1190.99 a7 7 0 1 0 14 0 a7 7 0 1 0 -14 0zM1608.4 1120.99 a7 7 0 1 0 14 0 a7 7 0 1 0 -14 0zM1729.65 -69.01 a7 7 0 1 0 14 0 a7 7 0 1 0 -14 0zM1790.27 -34.01 a7 7 0 1 0 14 0 a7 7 0 1 0 -14 0zM1790.27 35.99 a7 7 0 1 0 14 0 a7 7 0 1 0 -14 0zM1729.65 70.99 a7 7 0 1 0 14 0 a7 7 0 1 0 -14 0zM1669.02 35.99 a7 7 0 1 0 14 0 a7 7 0 1 0 -14 0zM1669.02 -34.01 a7 7 0 1 0 14 0 a7 7 0 1 0 -14 0zM1790.27 245.99 a7 7 0 1 0 14 0 a7 7 0 1 0 -14 0zM1850.89 280.99 a7 7 0 1 0 14 0 a7 7 0 1 0 -14 0zM1850.89 350.99 a7 7 0 1 0 14 0 a7 7 0 1 0 -14 0zM1790.27 385.99 a7 7 0 1 0 14 0 a7 7 0 1 0 -14 0zM1729.65 350.99 a7 7 0 1 0 14 0 a7 7 0 1 0 -14 0zM1729.65 280.99 a7 7 0 1 0 14 0 a7 7 0 1 0 -14 0zM1790.27 455.99 a7 7 0 1 0 14 0 a7 7 0 1 0 -14 0zM1669.02 385.99 a7 7 0 1 0 14 0 a7 7 0 1 0 -14 0zM1850.89 -69.01 a7 7 0 1 0 14 0 a7 7 0 1 0 -14 0zM1911.52 -34.01 a7 7 0 1 0 14 0 a7 7 0 1 0 -14 0zM1911.52 35.99 a7 7 0 1 0 14 0 a7 7 0 1 0 -14 0zM1850.89 70.99 a7 7 0 1 0 14 0 a7 7 0 1 0 -14 0zM1911.52 1295.99 a7 7 0 1 0 14 0 a7 7 0 1 0 -14 0zM1972.14 1330.99 a7 7 0 1 0 14 0 a7 7 0 1 0 -14 0zM1972.14 1400.99 a7 7 0 1 0 14 0 a7 7 0 1 0 -14 0zM1911.52 1435.99 a7 7 0 1 0 14 0 a7 7 0 1 0 -14 0zM1850.89 1400.99 a7 7 0 1 0 14 0 a7 7 0 1 0 -14 0zM1850.89 1330.99 a7 7 0 1 0 14 0 a7 7 0 1 0 -14 0zM2032.77 245.99 a7 7 0 1 0 14 0 a7 7 0 1 0 -14 0zM2093.39 280.99 a7 7 0 1 0 14 0 a7 7 0 1 0 -14 0zM2093.39 350.99 a7 7 0 1 0 14 0 a7 7 0 1 0 -14 0zM2032.77 385.99 a7 7 0 1 0 14 0 a7 7 0 1 0 -14 0zM1972.14 350.99 a7 7 0 1 0 14 0 a7 7 0 1 0 -14 0zM1972.14 280.99 a7 7 0 1 0 14 0 a7 7 0 1 0 -14 0zM2032.77 665.99 a7 7 0 1 0 14 0 a7 7 0 1 0 -14 0zM2093.39 700.99 a7 7 0 1 0 14 0 a7 7 0 1 0 -14 0zM2093.39 770.99 a7 7 0 1 0 14 0 a7 7 0 1 0 -14 0zM2032.77 805.99 a7 7 0 1 0 14 0 a7 7 0 1 0 -14 0zM1972.14 770.99 a7 7 0 1 0 14 0 a7 7 0 1 0 -14 0zM1972.14 700.99 a7 7 0 1 0 14 0 a7 7 0 1 0 -14 0zM2093.39 -69.01 a7 7 0 1 0 14 0 a7 7 0 1 0 -14 0zM2154.01 -34.01 a7 7 0 1 0 14 0 a7 7 0 1 0 -14 0zM2154.01 35.99 a7 7 0 1 0 14 0 a7 7 0 1 0 -14 0zM2093.39 70.99 a7 7 0 1 0 14 0 a7 7 0 1 0 -14 0zM2032.77 35.99 a7 7 0 1 0 14 0 a7 7 0 1 0 -14 0zM2032.77 -34.01 a7 7 0 1 0 14 0 a7 7 0 1 0 -14 0zM2093.39 560.99 a7 7 0 1 0 14 0 a7 7 0 1 0 -14 0zM2154.01 595.99 a7 7 0 1 0 14 0 a7 7 0 1 0 -14 0zM2154.01 665.99 a7 7 0 1 0 14 0 a7 7 0 1 0 -14 0zM2032.77 595.99 a7 7 0 1 0 14 0 a7 7 0 1 0 -14 0zM2214.64 700.99 a7 7 0 1 0 14 0 a7 7 0 1 0 -14 0zM2214.64 770.99 a7 7 0 1 0 14 0 a7 7 0 1 0 -14 0zM2154.01 805.99 a7 7 0 1 0 14 0 a7 7 0 1 0 -14 0zM2154.01 1085.99 a7 7 0 1 0 14 0 a7 7 0 1 0 -14 0zM2214.64 1120.99 a7 7 0 1 0 14 0 a7 7 0 1 0 -14 0zM2214.64 1190.99 a7 7 0 1 0 14 0 a7 7 0 1 0 -14 0zM2154.01 1225.99 a7 7 0 1 0 14 0 a7 7 0 1 0 -14 0zM2093.39 1190.99 a7 7 0 1 0 14 0 a7 7 0 1 0 -14 0zM2093.39 1120.99 a7 7 0 1 0 14 0 a7 7 0 1 0 -14 0zM2275.26 35.99 a7 7 0 1 0 14 0 a7 7 0 1 0 -14 0zM2335.88 70.99 a7 7 0 1 0 14 0 a7 7 0 1 0 -14 0zM2335.88 140.99 a7 7 0 1 0 14 0 a7 7 0 1 0 -14 0zM2275.26 175.99 a7 7 0 1 0 14 0 a7 7 0 1 0 -14 0zM2214.64 140.99 a7 7 0 1 0 14 0 a7 7 0 1 0 -14 0zM2214.64 70.99 a7 7 0 1 0 14 0 a7 7 0 1 0 -14 0zM2275.26 245.99 a7 7 0 1 0 14 0 a7 7 0 1 0 -14 0zM2214.64 280.99 a7 7 0 1 0 14 0 a7 7 0 1 0 -14 0zM2154.01 245.99 a7 7 0 1 0 14 0 a7 7 0 1 0 -14 0zM2154.01 175.99 a7 7 0 1 0 14 0 a7 7 0 1 0 -14 0zM2335.88 1190.99 a7 7 0 1 0 14 0 a7 7 0 1 0 -14 0zM2396.51 1225.99 a7 7 0 1 0 14 0 a7 7 0 1 0 -14 0zM2396.51 1295.99 a7 7 0 1 0 14 0 a7 7 0 1 0 -14 0zM2335.88 1330.99 a7 7 0 1 0 14 0 a7 7 0 1 0 -14 0zM2275.26 1295.99 a7 7 0 1 0 14 0 a7 7 0 1 0 -14 0zM2275.26 1225.99 a7 7 0 1 0 14 0 a7 7 0 1 0 -14 0zM2457.13 1330.99 a7 7 0 1 0 14 0 a7 7 0 1 0 -14 0zM2457.13 1400.99 a7 7 0 1 0 14 0 a7 7 0 1 0 -14 0zM2396.51 1435.99 a7 7 0 1 0 14 0 a7 7 0 1 0 -14 0zM2335.88 1400.99 a7 7 0 1 0 14 0 a7 7 0 1 0 -14 0zM2457.13 560.99 a7 7 0 1 0 14 0 a7 7 0 1 0 -14 0zM2517.75 595.99 a7 7 0 1 0 14 0 a7 7 0 1 0 -14 0zM2517.75 665.99 a7 7 0 1 0 14 0 a7 7 0 1 0 -14 0zM2457.13 700.99 a7 7 0 1 0 14 0 a7 7 0 1 0 -14 0zM2396.51 665.99 a7 7 0 1 0 14 0 a7 7 0 1 0 -14 0zM2396.51 595.99 a7 7 0 1 0 14 0 a7 7 0 1 0 -14 0zM2517.75 1295.99 a7 7 0 1 0 14 0 a7 7 0 1 0 -14 0zM2578.38 1330.99 a7 7 0 1 0 14 0 a7 7 0 1 0 -14 0zM2578.38 1400.99 a7 7 0 1 0 14 0 a7 7 0 1 0 -14 0zM2517.75 1435.99 a7 7 0 1 0 14 0 a7 7 0 1 0 -14 0zM2639 35.99 a7 7 0 1 0 14 0 a7 7 0 1 0 -14 0zM2699.62 70.99 a7 7 0 1 0 14 0 a7 7 0 1 0 -14 0zM2699.62 140.99 a7 7 0 1 0 14 0 a7 7 0 1 0 -14 0zM2639 175.99 a7 7 0 1 0 14 0 a7 7 0 1 0 -14 0zM2578.38 140.99 a7 7 0 1 0 14 0 a7 7 0 1 0 -14 0zM2578.38 70.99 a7 7 0 1 0 14 0 a7 7 0 1 0 -14 0zM2639 1085.99 a7 7 0 1 0 14 0 a7 7 0 1 0 -14 0zM2699.62 1120.99 a7 7 0 1 0 14 0 a7 7 0 1 0 -14 0zM2699.62 1190.99 a7 7 0 1 0 14 0 a7 7 0 1 0 -14 0zM2639 1225.99 a7 7 0 1 0 14 0 a7 7 0 1 0 -14 0zM2578.38 1190.99 a7 7 0 1 0 14 0 a7 7 0 1 0 -14 0zM2578.38 1120.99 a7 7 0 1 0 14 0 a7 7 0 1 0 -14 0z" fill="rgba(110, 231, 183, 0.15)"></path><path d="M44.65 351.46L105.27 386.46L105.27 456.46L44.65 491.46L-15.97 456.46L-15.97 386.46zM105.27 1296.46L165.9 1331.46L165.9 1401.46L105.27 1436.46L44.65 1401.46L44.65 1331.46zM226.52 246.46L287.14 281.46L287.14 351.46L226.52 386.46L165.9 351.46L165.9 281.46zM226.52 456.46L287.14 491.46L287.14 561.46L226.52 596.46L165.9 561.46L165.9 491.46zM226.52 876.46L287.14 911.46L287.14 981.46L226.52 1016.46L165.9 981.46L165.9 911.46zM287.14 -68.54L347.77 -33.54L347.77 36.46L287.14 71.46L226.52 36.46L226.52 -33.54zM469.01 246.46L529.64 281.46L529.64 351.46L469.01 386.46L408.39 351.46L408.39 281.46zM590.26 246.46L650.88 281.46L650.88 351.46L590.26 386.46L529.64 351.46L529.64 281.46zM529.64 981.46L590.26 1016.46L590.26 1086.46L529.64 1121.46L469.01 1086.46L469.01 1016.46zM590.26 1086.46L650.88 1121.46L650.88 1191.46L590.26 1226.46L529.64 1191.46L529.64 1121.46zM650.88 -68.54L711.51 -33.54L711.51 36.46L650.88 71.46L590.26 36.46L590.26 -33.54zM650.88 561.46L711.51 596.46L711.51 666.46L650.88 701.46L590.26 666.46L590.26 596.46zM650.88 771.46L711.51 806.46L711.51 876.46L650.88 911.46L590.26 876.46L590.26 806.46zM772.13 771.46L832.76 806.46L832.76 876.46L772.13 911.46L711.51 876.46L711.51 806.46zM832.76 876.46L893.38 911.46L893.38 981.46L832.76 1016.46L772.13 981.46L772.13 911.46zM772.13 981.46L832.76 1016.46L832.76 1086.46L772.13 1121.46L711.51 1086.46L711.51 1016.46zM832.76 1086.46L893.38 1121.46L893.38 1191.46L832.76 1226.46L772.13 1191.46L772.13 1121.46zM893.38 561.46L954 596.46L954 666.46L893.38 701.46L832.76 666.46L832.76 596.46zM893.38 981.46L954 1016.46L954 1086.46L893.38 1121.46L832.76 1086.46L832.76 1016.46zM893.38 1191.46L954 1226.46L954 1296.46L893.38 1331.46L832.76 1296.46L832.76 1226.46zM1075.25 1086.46L1135.87 1121.46L1135.87 1191.46L1075.25 1226.46L1014.63 1191.46L1014.63 1121.46zM1075.25 1296.46L1135.87 1331.46L1135.87 1401.46L1075.25 1436.46L1014.63 1401.46L1014.63 1331.46zM1196.5 666.46L1257.12 701.46L1257.12 771.46L1196.5 806.46L1135.87 771.46L1135.87 701.46zM1257.12 981.46L1317.74 1016.46L1317.74 1086.46L1257.12 1121.46L1196.5 1086.46L1196.5 1016.46zM1438.99 666.46L1499.61 701.46L1499.61 771.46L1438.99 806.46L1378.37 771.46L1378.37 701.46zM1499.61 141.46L1560.24 176.46L1560.24 246.46L1499.61 281.46L1438.99 246.46L1438.99 176.46zM1560.24 666.46L1620.86 701.46L1620.86 771.46L1560.24 806.46L1499.61 771.46L1499.61 701.46zM1681.48 666.46L1742.11 701.46L1742.11 771.46L1681.48 806.46L1620.86 771.46L1620.86 701.46zM1742.11 -68.54L1802.73 -33.54L1802.73 36.46L1742.11 71.46L1681.48 36.46L1681.48 -33.54zM1923.98 876.46L1984.6 911.46L1984.6 981.46L1923.98 1016.46L1863.36 981.46L1863.36 911.46zM2045.23 36.46L2105.85 71.46L2105.85 141.46L2045.23 176.46L1984.6 141.46L1984.6 71.46zM2045.23 1086.46L2105.85 1121.46L2105.85 1191.46L2045.23 1226.46L1984.6 1191.46L1984.6 1121.46zM2166.47 246.46L2227.1 281.46L2227.1 351.46L2166.47 386.46L2105.85 351.46L2105.85 281.46zM2166.47 456.46L2227.1 491.46L2227.1 561.46L2166.47 596.46L2105.85 561.46L2105.85 491.46zM2227.1 561.46L2287.72 596.46L2287.72 666.46L2227.1 701.46L2166.47 666.46L2166.47 596.46zM2287.72 1296.46L2348.34 1331.46L2348.34 1401.46L2287.72 1436.46L2227.1 1401.46L2227.1 1331.46zM2530.21 36.46L2590.84 71.46L2590.84 141.46L2530.21 176.46L2469.59 141.46L2469.59 71.46zM2530.21 1086.46L2590.84 1121.46L2590.84 1191.46L2530.21 1226.46L2469.59 1191.46L2469.59 1121.46zM2530.21 1296.46L2590.84 1331.46L2590.84 1401.46L2530.21 1436.46L2469.59 1401.46L2469.59 1331.46zM2651.46 246.46L2712.08 281.46L2712.08 351.46L2651.46 386.46L2590.84 351.46L2590.84 281.46z" stroke="rgba(0, 188, 125, 0.71)" stroke-width="2"></path></g><defs><mask id="SvgjsMask1031"><rect width="2600" height="1400" fill="#ffffff"></rect></mask></defs></svg>