<svg xmlns="http://www.w3.org/2000/svg" version="1.1" xmlns:xlink="http://www.w3.org/1999/xlink" xmlns:svgjs="http://svgjs.dev/svgjs" width="700" height="1200" preserveAspectRatio="none" viewBox="0 0 700 1200"><g mask="url(&quot;#SvgjsMask1054&quot;)" fill="none"><rect width="700" height="1200" x="0" y="0" fill="rgba(9, 9, 11, 1)"></rect><path d="M45.47 -56.73L106.09 -21.73L106.09 48.27L45.47 83.27L-15.15 48.27L-15.15 -21.73zM45.47 573.27L106.09 608.27L106.09 678.27L45.47 713.27L-15.15 678.27L-15.15 608.27zM106.09 888.27L166.72 923.27L166.72 993.27L106.09 1028.27L45.47 993.27L45.47 923.27zM45.47 993.27L106.09 1028.27L106.09 1098.27L45.47 1133.27L-15.15 1098.27L-15.15 1028.27zM227.34 468.27L287.96 503.27L287.96 573.27L227.34 608.27L166.72 573.27L166.72 503.27zM166.72 783.27L227.34 818.27L227.34 888.27L166.72 923.27L106.09 888.27L106.09 818.27zM287.96 -56.73L348.59 -21.73L348.59 48.27L287.96 83.27L227.34 48.27L227.34 -21.73zM287.96 363.27L348.59 398.27L348.59 468.27L287.96 503.27L227.34 468.27L227.34 398.27zM287.96 573.27L348.59 608.27L348.59 678.27L287.96 713.27L227.34 678.27L227.34 608.27zM348.59 888.27L409.21 923.27L409.21 993.27L348.59 1028.27L287.96 993.27L287.96 923.27zM409.21 -56.73L469.83 -21.73L469.83 48.27L409.21 83.27L348.59 48.27L348.59 -21.73zM469.83 258.27L530.46 293.27L530.46 363.27L469.83 398.27L409.21 363.27L409.21 293.27zM409.21 783.27L469.83 818.27L469.83 888.27L409.21 923.27L348.59 888.27L348.59 818.27zM530.46 -56.73L591.08 -21.73L591.08 48.27L530.46 83.27L469.83 48.27L469.83 -21.73zM591.08 48.27L651.71 83.27L651.71 153.27L591.08 188.27L530.46 153.27L530.46 83.27zM530.46 153.27L591.08 188.27L591.08 258.27L530.46 293.27L469.83 258.27L469.83 188.27zM591.08 888.27L651.71 923.27L651.71 993.27L591.08 1028.27L530.46 993.27L530.46 923.27zM651.71 -56.73L712.33 -21.73L712.33 48.27L651.71 83.27L591.08 48.27L591.08 -21.73zM651.71 153.27L712.33 188.27L712.33 258.27L651.71 293.27L591.08 258.27L591.08 188.27zM651.71 363.27L712.33 398.27L712.33 468.27L651.71 503.27L591.08 468.27L591.08 398.27zM651.71 993.27L712.33 1028.27L712.33 1098.27L651.71 1133.27L591.08 1098.27L591.08 1028.27z" stroke="rgba(110, 231, 183, 0.15)" stroke-width="2"></path><path d="M38.47 -56.73 a7 7 0 1 0 14 0 a7 7 0 1 0 -14 0zM99.09 -21.73 a7 7 0 1 0 14 0 a7 7 0 1 0 -14 0zM99.09 48.27 a7 7 0 1 0 14 0 a7 7 0 1 0 -14 0zM38.47 83.27 a7 7 0 1 0 14 0 a7 7 0 1 0 -14 0zM-22.15 48.27 a7 7 0 1 0 14 0 a7 7 0 1 0 -14 0zM-22.15 -21.73 a7 7 0 1 0 14 0 a7 7 0 1 0 -14 0zM38.47 573.27 a7 7 0 1 0 14 0 a7 7 0 1 0 -14 0zM99.09 608.27 a7 7 0 1 0 14 0 a7 7 0 1 0 -14 0zM99.09 678.27 a7 7 0 1 0 14 0 a7 7 0 1 0 -14 0zM38.47 713.27 a7 7 0 1 0 14 0 a7 7 0 1 0 -14 0zM-22.15 678.27 a7 7 0 1 0 14 0 a7 7 0 1 0 -14 0zM-22.15 608.27 a7 7 0 1 0 14 0 a7 7 0 1 0 -14 0zM99.09 888.27 a7 7 0 1 0 14 0 a7 7 0 1 0 -14 0zM159.72 923.27 a7 7 0 1 0 14 0 a7 7 0 1 0 -14 0zM159.72 993.27 a7 7 0 1 0 14 0 a7 7 0 1 0 -14 0zM99.09 1028.27 a7 7 0 1 0 14 0 a7 7 0 1 0 -14 0zM38.47 993.27 a7 7 0 1 0 14 0 a7 7 0 1 0 -14 0zM38.47 923.27 a7 7 0 1 0 14 0 a7 7 0 1 0 -14 0zM99.09 1098.27 a7 7 0 1 0 14 0 a7 7 0 1 0 -14 0zM38.47 1133.27 a7 7 0 1 0 14 0 a7 7 0 1 0 -14 0zM-22.15 1098.27 a7 7 0 1 0 14 0 a7 7 0 1 0 -14 0zM-22.15 1028.27 a7 7 0 1 0 14 0 a7 7 0 1 0 -14 0zM220.34 468.27 a7 7 0 1 0 14 0 a7 7 0 1 0 -14 0zM280.96 503.27 a7 7 0 1 0 14 0 a7 7 0 1 0 -14 0zM280.96 573.27 a7 7 0 1 0 14 0 a7 7 0 1 0 -14 0zM220.34 608.27 a7 7 0 1 0 14 0 a7 7 0 1 0 -14 0zM159.72 573.27 a7 7 0 1 0 14 0 a7 7 0 1 0 -14 0zM159.72 503.27 a7 7 0 1 0 14 0 a7 7 0 1 0 -14 0zM159.72 783.27 a7 7 0 1 0 14 0 a7 7 0 1 0 -14 0zM220.34 818.27 a7 7 0 1 0 14 0 a7 7 0 1 0 -14 0zM220.34 888.27 a7 7 0 1 0 14 0 a7 7 0 1 0 -14 0zM99.09 818.27 a7 7 0 1 0 14 0 a7 7 0 1 0 -14 0zM280.96 -56.73 a7 7 0 1 0 14 0 a7 7 0 1 0 -14 0zM341.59 -21.73 a7 7 0 1 0 14 0 a7 7 0 1 0 -14 0zM341.59 48.27 a7 7 0 1 0 14 0 a7 7 0 1 0 -14 0zM280.96 83.27 a7 7 0 1 0 14 0 a7 7 0 1 0 -14 0zM220.34 48.27 a7 7 0 1 0 14 0 a7 7 0 1 0 -14 0zM220.34 -21.73 a7 7 0 1 0 14 0 a7 7 0 1 0 -14 0zM280.96 363.27 a7 7 0 1 0 14 0 a7 7 0 1 0 -14 0zM341.59 398.27 a7 7 0 1 0 14 0 a7 7 0 1 0 -14 0zM341.59 468.27 a7 7 0 1 0 14 0 a7 7 0 1 0 -14 0zM220.34 398.27 a7 7 0 1 0 14 0 a7 7 0 1 0 -14 0zM341.59 608.27 a7 7 0 1 0 14 0 a7 7 0 1 0 -14 0zM341.59 678.27 a7 7 0 1 0 14 0 a7 7 0 1 0 -14 0zM280.96 713.27 a7 7 0 1 0 14 0 a7 7 0 1 0 -14 0zM220.34 678.27 a7 7 0 1 0 14 0 a7 7 0 1 0 -14 0zM341.59 888.27 a7 7 0 1 0 14 0 a7 7 0 1 0 -14 0zM402.21 923.27 a7 7 0 1 0 14 0 a7 7 0 1 0 -14 0zM402.21 993.27 a7 7 0 1 0 14 0 a7 7 0 1 0 -14 0zM341.59 1028.27 a7 7 0 1 0 14 0 a7 7 0 1 0 -14 0zM280.96 993.27 a7 7 0 1 0 14 0 a7 7 0 1 0 -14 0zM280.96 923.27 a7 7 0 1 0 14 0 a7 7 0 1 0 -14 0zM402.21 -56.73 a7 7 0 1 0 14 0 a7 7 0 1 0 -14 0zM462.83 -21.73 a7 7 0 1 0 14 0 a7 7 0 1 0 -14 0zM462.83 48.27 a7 7 0 1 0 14 0 a7 7 0 1 0 -14 0zM402.21 83.27 a7 7 0 1 0 14 0 a7 7 0 1 0 -14 0zM462.83 258.27 a7 7 0 1 0 14 0 a7 7 0 1 0 -14 0zM523.46 293.27 a7 7 0 1 0 14 0 a7 7 0 1 0 -14 0zM523.46 363.27 a7 7 0 1 0 14 0 a7 7 0 1 0 -14 0zM462.83 398.27 a7 7 0 1 0 14 0 a7 7 0 1 0 -14 0zM402.21 363.27 a7 7 0 1 0 14 0 a7 7 0 1 0 -14 0zM402.21 293.27 a7 7 0 1 0 14 0 a7 7 0 1 0 -14 0zM402.21 783.27 a7 7 0 1 0 14 0 a7 7 0 1 0 -14 0zM462.83 818.27 a7 7 0 1 0 14 0 a7 7 0 1 0 -14 0zM462.83 888.27 a7 7 0 1 0 14 0 a7 7 0 1 0 -14 0zM341.59 818.27 a7 7 0 1 0 14 0 a7 7 0 1 0 -14 0zM523.46 -56.73 a7 7 0 1 0 14 0 a7 7 0 1 0 -14 0zM584.08 -21.73 a7 7 0 1 0 14 0 a7 7 0 1 0 -14 0zM584.08 48.27 a7 7 0 1 0 14 0 a7 7 0 1 0 -14 0zM523.46 83.27 a7 7 0 1 0 14 0 a7 7 0 1 0 -14 0zM644.71 83.27 a7 7 0 1 0 14 0 a7 7 0 1 0 -14 0zM644.71 153.27 a7 7 0 1 0 14 0 a7 7 0 1 0 -14 0zM584.08 188.27 a7 7 0 1 0 14 0 a7 7 0 1 0 -14 0zM523.46 153.27 a7 7 0 1 0 14 0 a7 7 0 1 0 -14 0zM584.08 258.27 a7 7 0 1 0 14 0 a7 7 0 1 0 -14 0zM462.83 188.27 a7 7 0 1 0 14 0 a7 7 0 1 0 -14 0zM584.08 888.27 a7 7 0 1 0 14 0 a7 7 0 1 0 -14 0zM644.71 923.27 a7 7 0 1 0 14 0 a7 7 0 1 0 -14 0zM644.71 993.27 a7 7 0 1 0 14 0 a7 7 0 1 0 -14 0zM584.08 1028.27 a7 7 0 1 0 14 0 a7 7 0 1 0 -14 0zM523.46 993.27 a7 7 0 1 0 14 0 a7 7 0 1 0 -14 0zM523.46 923.27 a7 7 0 1 0 14 0 a7 7 0 1 0 -14 0zM644.71 -56.73 a7 7 0 1 0 14 0 a7 7 0 1 0 -14 0zM705.33 -21.73 a7 7 0 1 0 14 0 a7 7 0 1 0 -14 0zM705.33 48.27 a7 7 0 1 0 14 0 a7 7 0 1 0 -14 0zM705.33 188.27 a7 7 0 1 0 14 0 a7 7 0 1 0 -14 0zM705.33 258.27 a7 7 0 1 0 14 0 a7 7 0 1 0 -14 0zM644.71 293.27 a7 7 0 1 0 14 0 a7 7 0 1 0 -14 0zM644.71 363.27 a7 7 0 1 0 14 0 a7 7 0 1 0 -14 0zM705.33 398.27 a7 7 0 1 0 14 0 a7 7 0 1 0 -14 0zM705.33 468.27 a7 7 0 1 0 14 0 a7 7 0 1 0 -14 0zM644.71 503.27 a7 7 0 1 0 14 0 a7 7 0 1 0 -14 0zM584.08 468.27 a7 7 0 1 0 14 0 a7 7 0 1 0 -14 0zM584.08 398.27 a7 7 0 1 0 14 0 a7 7 0 1 0 -14 0zM705.33 1028.27 a7 7 0 1 0 14 0 a7 7 0 1 0 -14 0zM705.33 1098.27 a7 7 0 1 0 14 0 a7 7 0 1 0 -14 0zM644.71 1133.27 a7 7 0 1 0 14 0 a7 7 0 1 0 -14 0zM584.08 1098.27 a7 7 0 1 0 14 0 a7 7 0 1 0 -14 0z" fill="rgba(110, 231, 183, 0.15)"></path><path d="M184.17 42.52L244.79 77.52L244.79 147.52L184.17 182.52L123.55 147.52L123.55 77.52zM184.17 252.52L244.79 287.52L244.79 357.52L184.17 392.52L123.55 357.52L123.55 287.52zM244.79 357.52L305.42 392.52L305.42 462.52L244.79 497.52L184.17 462.52L184.17 392.52zM244.79 777.52L305.42 812.52L305.42 882.52L244.79 917.52L184.17 882.52L184.17 812.52zM426.66 42.52L487.29 77.52L487.29 147.52L426.66 182.52L366.04 147.52L366.04 77.52zM366.04 147.52L426.66 182.52L426.66 252.52L366.04 287.52L305.42 252.52L305.42 182.52zM366.04 777.52L426.66 812.52L426.66 882.52L366.04 917.52L305.42 882.52L305.42 812.52zM366.04 987.52L426.66 1022.52L426.66 1092.52L366.04 1127.52L305.42 1092.52L305.42 1022.52zM487.29 567.52L547.91 602.52L547.91 672.52L487.29 707.52L426.66 672.52L426.66 602.52zM487.29 987.52L547.91 1022.52L547.91 1092.52L487.29 1127.52L426.66 1092.52L426.66 1022.52zM669.16 42.52L729.78 77.52L729.78 147.52L669.16 182.52L608.53 147.52L608.53 77.52zM669.16 462.52L729.78 497.52L729.78 567.52L669.16 602.52L608.53 567.52L608.53 497.52z" stroke="rgba(0, 188, 125, 0.71)" stroke-width="2"></path></g><defs><mask id="SvgjsMask1054"><rect width="700" height="1200" fill="#ffffff"></rect></mask></defs></svg>